<svg data-name="Layer 1" xmlns="http://www.w3.org/2000/svg" viewBox="0 0 128 128" width="2500" height="2500"><defs><linearGradient id="a" x1="75.15" y1="5346.58" x2="85.12" y2="5371.42" gradientTransform="matrix(1 0 0 -1 0 5378.82)" gradientUnits="userSpaceOnUse"><stop offset="0" stop-color="#9775f8"/><stop offset=".95" stop-color="#22d88f"/></linearGradient><linearGradient id="b" x1="31.21" y1="5312.56" x2="44.16" y2="5256.16" gradientTransform="matrix(1 0 0 -1 0 5378.82)" gradientUnits="userSpaceOnUse"><stop offset="0" stop-color="#9775f8"/><stop offset=".21" stop-color="#689cce"/><stop offset=".42" stop-color="#42bdac"/><stop offset=".59" stop-color="#2bd197"/><stop offset=".69" stop-color="#22d88f"/></linearGradient><linearGradient id="c" x1="8.91" y1="5316.54" x2="121.07" y2="5254.61" gradientTransform="matrix(1 0 0 -1 0 5378.82)" gradientUnits="userSpaceOnUse"><stop offset=".08" stop-color="#22d88f"/><stop offset=".72" stop-color="#9775f8"/></linearGradient><linearGradient id="d" y1="5329.82" x2="112.72" y2="5329.82" gradientTransform="matrix(1 0 0 -1 0 5378.82)" gradientUnits="userSpaceOnUse"><stop offset=".08" stop-color="#22d88f"/><stop offset=".27" stop-color="#5ab0b4"/><stop offset=".56" stop-color="#b86cf2"/><stop offset="1" stop-color="#ff59e6"/></linearGradient></defs><title>icon_DataGrip</title><path fill="#9775f8" d="M119.8 19.8l8.2 52.4-31 18.2-6-29.8 28.8-40.8z"/><path fill="url(#a)" d="M119.8 19.8L74 0 35.6 32 91 60.6l28.8-40.8z"/><path fill="url(#b)" d="M86.4 128L33 55.8 17 66.6 1.2 114.2 86.4 128z"/><path fill="url(#c)" d="M96.6 91.6L59 67 0 59l86.4 69 10.2-36.4z"/><path fill="url(#d)" d="M0 .8V59l111 38.2 8.8-77.4L0 .8z"/><g><path d="M24 24h80v80H24z"/><g fill="#fff"><path d="M32.11 34.4H45c10.41 0 17.61 7.15 17.61 16.47V51c0 9.32-7.19 16.56-17.61 16.56H32.11V34.4zM39.4 41v20H45c6 0 10-4 10-9.89V51c0-5.87-4-10-10-10h-5.6zM63.93 51.06V51A17 17 0 0 1 81.3 33.83c6 0 9.56 1.61 13 4.54l-4.59 5.54a12.2 12.2 0 0 0-8.66-3.36c-5.3 0-9.51 4.68-9.51 10.32V51c0 6.06 4.16 10.51 10 10.51a11.63 11.63 0 0 0 6.86-2v-4.76h-7.29v-6.29H95.5v14.38a21.5 21.5 0 0 1-14.15 5.26c-10.35 0-17.42-7.24-17.42-17.04zM31.36 88.99h30v5h-30z"/></g></g></svg>