<?xml version="1.0" encoding="UTF-8" standalone="no"?>
<svg
   xmlns:dc="http://purl.org/dc/elements/1.1/"
   xmlns:cc="http://creativecommons.org/ns#"
   xmlns:rdf="http://www.w3.org/1999/02/22-rdf-syntax-ns#"
   xmlns:svg="http://www.w3.org/2000/svg"
   xmlns="http://www.w3.org/2000/svg"
   xmlns:sodipodi="http://sodipodi.sourceforge.net/DTD/sodipodi-0.dtd"
   xmlns:inkscape="http://www.inkscape.org/namespaces/inkscape"
   width="1883.7573"
   height="2000.7384"
   viewBox="0 0 1016.631 1079.6857"
   version="1.1"
   id="svg125"
   sodipodi:docname="mumble.svg"
   inkscape:version="0.92.3 (2405546, 2018-03-11)">
  <metadata
     id="metadata131">
    <rdf:RDF>
      <cc:Work
         rdf:about="">
        <dc:format>image/svg+xml</dc:format>
        <dc:type
           rdf:resource="http://purl.org/dc/dcmitype/StillImage" />
        <dc:title>Mumble logo</dc:title>
      </cc:Work>
    </rdf:RDF>
  </metadata>
  <defs
     id="defs129" />
  <sodipodi:namedview
     pagecolor="#ffffff"
     bordercolor="#666666"
     borderopacity="1"
     objecttolerance="10"
     gridtolerance="10"
     guidetolerance="10"
     inkscape:pageopacity="0"
     inkscape:pageshadow="2"
     inkscape:window-width="640"
     inkscape:window-height="480"
     id="namedview127"
     showgrid="false"
     inkscape:zoom="0.0944"
     inkscape:cx="923.1602"
     inkscape:cy="1093.2175"
     inkscape:window-x="0"
     inkscape:window-y="0"
     inkscape:window-maximized="0"
     inkscape:current-layer="svg125"
     fit-margin-top="0"
     fit-margin-left="0"
     fit-margin-right="0"
     fit-margin-bottom="0" />
  <title
     id="title2">Mumble logo</title>
  <path
     d="m 1111.124,432.33603 c 0,340.253 -275.83,616.08597 -616.083,616.08597 -340.256,0 -616.086,-275.83297 -616.086,-616.08597 0,-340.256004 275.83,-616.08601 616.086,-616.08601 340.253,0 616.083,275.830006 616.083,616.08601 z"
     id="path6"
     inkscape:connector-curvature="0"
     style="fill:#ffffff;fill-opacity:0" />
  <radialGradient
     id="a"
     cx="619.10602"
     cy="1143.686"
     r="611.66498"
     gradientTransform="matrix(1.0471,0.0178,-0.0179,1.0731,4.53,-511.723)"
     gradientUnits="userSpaceOnUse">
    <stop
       offset="0"
       stop-opacity="0"
       id="stop14" />
    <stop
       offset=".817"
       stop-opacity=".02"
       id="stop16" />
    <stop
       offset=".899"
       stop-opacity=".145"
       id="stop18" />
    <stop
       offset=".912"
       stop-opacity=".208"
       id="stop20" />
    <stop
       offset=".956"
       stop-opacity=".251"
       id="stop22" />
    <stop
       offset="1"
       stop-opacity=".333"
       id="stop24" />
  </radialGradient>
  <g
     id="g38"
     transform="translate(-128.358,-184.82998)">
    <path
       d="m 480.363,187.477 c -83.218,-2.079 -167.519,53.017 -188.549,135.459 -4.897,19.986 -6.895,38.935 -7.25,58.235 v 214.778 h 84.396 c 0.298,-75.558 -0.428,-150.712 0.574,-226.423 2.597,-48.083 39.745,-98.771 91.313,-98.183 0.376,76.525 -0.776,153.097 0.605,229.592 4.398,62.203 63.338,113.686 125.728,108.411 38.976,-0.946 78.245,2.271 116.967,-2.447 58.959,-11.054 99.764,-71.104 94.281,-129.797 V 271.659 c 53.637,-3.917 94.311,48.149 96.689,98.183 0.996,75.711 0.279,150.874 0.574,226.423 h 84.396 V 368.397 c -2.764,-24.563 -6.656,-54.621 -19.969,-78.313 -34.529,-70.053 -115.293,-107.852 -191.467,-102.157 -22.25,-2.826 -46.188,12.22 -52.281,33.308 0.367,90.265 0.629,180.561 -0.051,270.809 -2.543,37.809 -39.803,66.719 -76.984,61.92 -26.305,1.143 -56.02,0.045 -73.958,-22.557 -24.18,-25.557 -16.079,-62.134 -17.498,-93.888 0.063,-73.319 -0.242,-146.573 0.42,-219.767 -11.001,-22.251 -35.457,-33.736 -59.684,-30.084 l -4.009,-0.055 z"
       id="path29"
       inkscape:connector-curvature="0"
       style="stroke:#ffffff" />
    <radialGradient
       id="b"
       cx="453.15601"
       cy="919.59003"
       r="96.050003"
       gradientTransform="matrix(-0.9512,-0.3797,-0.79,1.979,1374.069,-928.288)"
       gradientUnits="userSpaceOnUse">
      <stop
         offset="0"
         stop-color="#e6e6e6"
         id="stop31" />
      <stop
         offset="1"
         stop-color="#e6e6e6"
         stop-opacity="0"
         id="stop33" />
    </radialGradient>
    <path
       d="M 327.966,581.52 V 1153.3 C 215.028,1140.91 126.261,1017.664 126.261,867.41 126.26,717.158 215.026,593.91 327.966,581.52 Z"
       id="path36"
       inkscape:connector-curvature="0"
       style="opacity:0.96700003;fill:url(#b)" />
  </g>
  <g
     id="g48"
     style="stroke:#ffffff"
     transform="translate(-128.358,-184.82998)">
    <path
       d="m 946.286,1137.927 c -2.359,-0.024 -11.178,-1.943 -13.303,-0.564 0,0 -3.494,10.186 -15.541,19.147 -10.578,7.872 -20.619,15.413 -31.379,22.49 -9.66,6.354 -20.027,13.228 -29.74,17.902 -7.645,3.68 -13.889,4.214 -13.889,4.214 H 733.667 c -6.795,0 -12.359,5.355 -12.359,12.023 v 2.955 c 0,6.669 5.564,12.132 12.359,12.132 h 114.371 c 2.631,0 12.145,-2.77 17.799,-5.25 14.102,-6.188 23.289,-14.063 39.531,-23.724 17.262,-11.042 49.193,-36.75 49.193,-36.75 5.67,-3.674 7.184,-11.102 3.438,-16.666 l -1.609,-2.533 c -2.34,-3.473 -6.172,-5.339 -10.104,-5.376 z"
       id="path40"
       inkscape:connector-curvature="0" />
    <path
       d="m 938.947,581.866 v 571.777 c 112.938,-12.39 201.703,-135.639 201.703,-285.889 0,-150.252 -88.766,-273.501 -201.703,-285.888 z m -614.489,3.036 v 571.78 C 211.52,1144.293 122.754,1021.04 122.754,870.793 c 0,-150.252 88.765,-273.5 201.704,-285.891 z m 409.791,625.953 c 0.023,29.834 -41.523,54.025 -92.795,54.041 -51.271,0.013 -92.85,-24.163 -92.875,-53.99 v -0.051 c -0.021,-29.826 41.522,-54.021 92.795,-54.033 51.271,-0.014 92.854,24.155 92.875,53.989 z"
       id="path42"
       inkscape:connector-curvature="0"
       style="opacity:0.96700003" />
    <path
       d="m 902.665,572.616 h 18.629 c 7.201,0 13.041,5.35 13.041,11.95 v 556.565 c 0,6.604 -5.84,11.953 -13.041,11.953 h -18.629 c -7.203,0 -13.043,-5.351 -13.043,-11.953 V 584.566 c 0,-6.6 5.84,-11.95 13.043,-11.95 z"
       id="path44"
       inkscape:connector-curvature="0"
       style="opacity:0.96700003;stroke-width:1.05400002" />
    <path
       d="m 340.982,575.973 h 18.257 c 7.062,0 12.782,5.351 12.782,11.951 v 556.603 c 0,6.6 -5.721,11.948 -12.782,11.948 h -18.257 c -7.058,0 -12.779,-5.35 -12.779,-11.948 V 587.925 c 0,-6.601 5.722,-11.952 12.779,-11.952 z"
       id="path46"
       inkscape:connector-curvature="0"
       style="opacity:0.96700003;stroke-width:1.04299998" />
  </g>
  <g
     id="g79"
     transform="translate(-128.358,-184.82998)">
    <path
       d="m 406.304,686.23 h 452.792 v 359.719 H 406.304 Z"
       id="path50"
       inkscape:connector-curvature="0" />
    <radialGradient
       id="c"
       cx="491.71201"
       cy="922.35699"
       r="62.923"
       gradientTransform="matrix(1.1007,0,0,2.5563,-28.718,-1490.714)"
       gradientUnits="userSpaceOnUse">
      <stop
         offset="0"
         stop-color="#b3b3b3"
         id="stop52" />
      <stop
         offset="1"
         stop-color="#b3b3b3"
         stop-opacity="0"
         id="stop54" />
    </radialGradient>
    <path
       d="m 578.366,925.08 c 0,14.873 -1.548,27.935 -4.646,39.187 -3.096,11.257 -7.262,20.565 -12.496,27.936 -6.192,8.841 -12.996,15.136 -20.402,18.888 -7.41,3.749 -16.829,5.627 -28.257,5.627 H 446.652 V 717.502 h 58.169 c 12.091,0 21.252,0.837 27.482,2.512 6.231,1.676 12.075,5.191 17.529,10.548 5.898,5.766 10.305,13.464 13.215,23.108 2.914,9.647 4.37,20.766 4.37,33.358 0,14.604 -2.01,27.599 -6.028,38.986 -4.02,11.384 -9.566,19.761 -16.645,25.117 v 1.606 c 10.174,3.888 18.32,11.824 24.439,23.813 6.122,11.994 9.183,28.171 9.183,48.53 z M 525.393,802.103 c 0,-4.823 -0.681,-9.783 -2.047,-14.873 -1.363,-5.09 -3.482,-8.774 -6.358,-11.052 -2.729,-2.145 -5.953,-3.315 -9.677,-3.517 -3.724,-0.202 -9.271,-0.303 -16.644,-0.303 h -2.876 v 63.301 h 5.198 c 7.077,0 12.035,-0.136 14.873,-0.401 2.838,-0.271 5.771,-1.677 8.791,-4.22 3.319,-2.813 5.604,-6.7 6.857,-11.655 1.255,-4.956 1.883,-10.717 1.883,-17.28 z m 10.395,121.57 c 0,-9.243 -1.032,-16.479 -3.096,-21.702 -2.065,-5.225 -5.162,-9.174 -9.291,-11.855 -2.505,-1.738 -5.953,-2.713 -10.339,-2.912 -4.389,-0.201 -10.267,-0.303 -17.642,-0.303 h -7.629 v 74.954 h 2.213 c 10.763,0 18.21,-0.135 22.339,-0.4 4.128,-0.269 8.33,-2.076 12.604,-5.426 3.763,-2.948 6.506,-7.27 8.239,-12.961 1.735,-5.693 2.602,-12.161 2.602,-19.395 z"
       id="path57"
       inkscape:connector-curvature="0"
       style="fill:url(#c)" />
    <path
       d="m 563.965,924.062 c 0,14.869 -1.548,27.932 -4.645,39.188 -3.096,11.252 -7.262,20.562 -12.496,27.934 -6.194,8.843 -12.995,15.135 -20.404,18.89 -7.41,3.749 -16.829,5.626 -28.254,5.626 H 432.254 V 716.483 h 58.169 c 12.091,0 21.253,0.838 27.481,2.513 6.229,1.675 12.072,5.192 17.529,10.55 5.896,5.761 10.301,13.463 13.215,23.106 2.911,9.646 4.367,20.768 4.367,33.359 0,14.604 -2.009,27.596 -6.025,38.986 -4.018,11.385 -9.565,19.758 -16.646,25.118 v 1.606 c 10.176,3.885 18.324,11.821 24.442,23.813 6.12,11.988 9.179,28.168 9.179,48.528 z M 510.991,801.084 c 0,-4.823 -0.681,-9.78 -2.044,-14.87 -1.365,-5.089 -3.484,-8.775 -6.36,-11.055 -2.727,-2.143 -5.953,-3.315 -9.678,-3.518 -3.721,-0.201 -9.269,-0.298 -16.644,-0.302 h -2.873 v 63.303 h 5.196 c 7.077,0 12.035,-0.138 14.876,-0.4 2.838,-0.271 5.768,-1.678 8.792,-4.221 3.314,-2.813 5.601,-6.7 6.856,-11.658 1.254,-4.957 1.879,-10.715 1.879,-17.279 z m 10.395,121.572 c 0,-9.243 -1.03,-16.479 -3.096,-21.701 -2.063,-5.226 -5.162,-9.176 -9.291,-11.855 -2.506,-1.74 -5.953,-2.713 -10.34,-2.914 -4.386,-0.201 -10.267,-0.302 -17.639,-0.302 h -7.63 v 74.955 h 2.21 c 10.763,0 18.21,-0.136 22.339,-0.405 4.129,-0.264 8.33,-2.071 12.606,-5.426 3.761,-2.945 6.508,-7.265 8.24,-12.961 1.735,-5.689 2.601,-12.158 2.601,-19.391 z"
       id="path59"
       inkscape:connector-curvature="0"
       style="fill:#ffffff" />
    <radialGradient
       id="d"
       cx="622.87799"
       cy="886.16302"
       r="53.025002"
       gradientTransform="matrix(1.1007,0,0,3.0333,-28.718,-1820.888)"
       gradientUnits="userSpaceOnUse">
      <stop
         offset="0"
         stop-color="#b3b3b3"
         id="stop61" />
      <stop
         offset="1"
         stop-color="#b3b3b3"
         stop-opacity="0"
         id="stop63" />
    </radialGradient>
    <path
       d="M 711.847,1016.715 H 601.921 V 717.502 h 41.362 v 242.143 h 68.564 z"
       id="path66"
       inkscape:connector-curvature="0"
       style="fill:url(#d)" />
    <path
       d="m 585.308,714.304 v 303.924 H 699.644 V 956.337 H 630.923 V 714.304 Z"
       id="path68"
       inkscape:connector-curvature="0"
       style="fill:#ffffff" />
    <radialGradient
       id="e"
       cx="741.28601"
       cy="888.552"
       r="53.676998"
       gradientTransform="matrix(1.1007,0,0,2.9964,-28.718,-1795.347)"
       gradientUnits="userSpaceOnUse">
      <stop
         offset="0"
         stop-color="#b3b3b3"
         id="stop70" />
      <stop
         offset="1"
         stop-color="#b3b3b3"
         stop-opacity="0"
         id="stop72" />
    </radialGradient>
    <path
       d="M 731.534,1016.715 V 717.502 H 842.895 V 774.57 H 772.67 v 52.448 h 64.695 v 57.067 H 772.67 v 75.558 h 70.225 v 57.07 z"
       id="path75"
       inkscape:connector-curvature="0"
       style="fill:url(#e)" />
    <path
       d="m 715.519,714.103 v 303.925 h 114.334 v -61.892 h -68.721 v -71.635 h 63.195 V 824.52 h -63.195 v -48.526 h 68.721 v -61.891 z"
       id="path77"
       inkscape:connector-curvature="0"
       style="fill:#ffffff" />
  </g>
  <g
     id="g123"
     transform="translate(-128.358,-184.82998)">
    <radialGradient
       id="f"
       cx="1132.244"
       cy="1679.729"
       r="332.577"
       gradientTransform="matrix(0.4173,-0.0106,0.0089,0.3481,147.62,-73.835)"
       gradientUnits="userSpaceOnUse">
      <stop
         offset="0"
         stop-color="#bebebe"
         id="stop81" />
      <stop
         offset="1"
         stop-color="#b3b3b3"
         stop-opacity="0"
         id="stop83" />
    </radialGradient>
    <path
       d="m 482.608,185.259 c -83.218,-2.078 -167.516,53.016 -188.546,135.46 -4.897,19.985 -6.897,38.934 -7.25,58.235 v 214.777 h 84.396 c 0.298,-75.557 -0.428,-150.711 0.573,-226.423 2.595,-48.082 39.743,-98.769 91.31,-98.182 0.38,76.523 -0.772,153.097 0.608,229.591 4.398,62.204 63.337,113.686 125.727,108.411 38.975,-0.945 78.245,2.272 116.963,-2.446 58.961,-11.053 99.768,-71.104 94.281,-129.799 V 269.441 c 53.637,-3.917 94.314,48.15 96.693,98.185 0.996,75.711 0.277,150.872 0.574,226.423 H 982.33 V 366.182 C 979.57,341.619 975.676,311.56 962.365,287.869 927.834,217.815 847.068,180.017 770.896,185.712 c -22.248,-2.826 -46.188,12.22 -52.279,33.308 0.367,90.266 0.625,180.561 -0.051,270.809 -2.543,37.809 -39.803,66.719 -76.988,61.918 -26.304,1.143 -56.016,0.047 -73.956,-22.557 -24.178,-25.555 -16.08,-62.133 -17.499,-93.886 0.065,-73.318 -0.239,-146.573 0.424,-219.767 -11.004,-22.251 -35.457,-33.736 -59.684,-30.084 l -4.009,-0.056 z"
       id="path86"
       inkscape:connector-curvature="0"
       style="fill:url(#f)" />
    <radialGradient
       id="g"
       cx="471.46399"
       cy="857.15601"
       r="124.182"
       gradientTransform="matrix(-1.1864,0.795,0.2118,0.3161,823,-462.607)"
       gradientUnits="userSpaceOnUse">
      <stop
         offset="0"
         stop-color="#afafaf"
         id="stop88" />
      <stop
         offset="1"
         stop-color="#e6e6e6"
         stop-opacity="0"
         id="stop90" />
    </radialGradient>
    <path
       d="m 479.915,189.304 c -101.771,0 -180.587,68.268 -192.842,156.764 h 86.715 c 11.719,-39.948 42.16,-69.179 78.805,-72.578 2.38,-2.25 5.698,-3.692 9.388,-3.692 h 85.557 l 0.317,-50.215 c 0,0 -7.647,-11.979 -13.821,-17.618 -6.991,-6.391 -16.433,-11.022 -25.738,-12.027 -7.801,-0.843 -16.721,-0.133 -28.381,-0.634 z"
       id="path93"
       inkscape:connector-curvature="0"
       style="fill:url(#g)" />
    <radialGradient
       id="h"
       cx="544.79199"
       cy="1799.913"
       r="72.758003"
       gradientTransform="matrix(1.3048,0,0,0.7692,-69.342,-230.024)"
       gradientUnits="userSpaceOnUse">
      <stop
         offset="0"
         stop-color="#999"
         id="stop95" />
      <stop
         offset="1"
         stop-color="#999"
         stop-opacity="0"
         id="stop97" />
    </radialGradient>
    <path
       d="m 734.337,1210.51 c 0.021,29.831 -41.523,54.022 -92.793,54.038 -51.273,0.013 -92.855,-24.16 -92.876,-53.987 v -0.051 c -0.022,-29.83 41.521,-54.021 92.794,-54.034 51.27,-0.016 92.854,24.157 92.875,53.987 z"
       id="path100"
       inkscape:connector-curvature="0"
       style="opacity:0.96700003;fill:url(#h)" />
    <radialGradient
       id="i"
       cx="903.966"
       cy="1161.61"
       r="96.050003"
       gradientTransform="matrix(0.5466,-0.2774,0.6405,1.262,-177.81,-486.888)"
       gradientUnits="userSpaceOnUse">
      <stop
         offset="0"
         stop-color="#969696"
         id="stop102" />
      <stop
         offset="1"
         stop-color="#e6e6e6"
         stop-opacity="0"
         id="stop104" />
    </radialGradient>
    <path
       d="m 943.284,584.716 v 571.778 c 112.939,-12.389 201.705,-135.634 201.705,-285.889 10e-4,-150.252 -88.765,-273.5 -201.705,-285.889 z"
       id="path107"
       inkscape:connector-curvature="0"
       style="opacity:0.96700003;fill:url(#i)" />
    <radialGradient
       id="j"
       cx="699.33197"
       cy="278.12299"
       r="124.181"
       gradientTransform="matrix(1.1864,0.795,-0.2118,0.3161,44.242,-463.453)"
       gradientUnits="userSpaceOnUse">
      <stop
         offset="0"
         stop-color="#afafaf"
         id="stop109" />
      <stop
         offset="1"
         stop-color="#e6e6e6"
         stop-opacity="0"
         id="stop111" />
    </radialGradient>
    <path
       d="m 780.322,186.585 c 101.773,0 180.586,68.267 192.844,156.764 H 886.45 c -11.721,-39.952 -42.164,-69.181 -78.807,-72.581 -2.381,-2.25 -5.695,-3.691 -9.389,-3.691 h -85.559 l -0.313,-50.216 c 0,0 7.646,-11.977 13.816,-17.616 6.996,-6.392 16.438,-11.023 25.744,-12.026 7.799,-0.843 16.719,-0.134 28.38,-0.634 z"
       id="path114"
       inkscape:connector-curvature="0"
       style="fill:url(#j)" />
    <radialGradient
       id="k"
       cx="320.91101"
       cy="1031.5129"
       r="96.051003"
       gradientTransform="matrix(-0.5466,-0.2774,-0.6405,1.262,1049.132,-487.991)"
       gradientUnits="userSpaceOnUse">
      <stop
         offset="0"
         stop-color="#969696"
         id="stop116" />
      <stop
         offset="1"
         stop-color="#e6e6e6"
         stop-opacity="0"
         id="stop118" />
    </radialGradient>
    <path
       d="m 330.062,581.167 v 571.78 c -112.938,-12.39 -201.704,-135.639 -201.704,-285.89 0,-150.253 88.766,-273.501 201.704,-285.89 z"
       id="path121"
       inkscape:connector-curvature="0"
       style="opacity:0.96700003;fill:url(#k)" />
  </g>
</svg>
