<svg xmlns="http://www.w3.org/2000/svg" width="2322" height="2500" viewBox="0 0 1253.143 1349.109"><title>Mumble logo</title><path fill="#1A1A1A" stroke="#000" stroke-width="4.576" stroke-linejoin="round" d="M1251.31 729.934c0 341.293-278.527 617.967-622.105 617.967-343.581 0-622.107-276.674-622.107-617.967 0-341.29 278.526-617.962 622.107-617.962 343.577 0 622.105 276.672 622.105 617.962z"/><path fill="#FFF" fill-opacity="0" d="M1239.482 617.166c0 340.253-275.83 616.086-616.083 616.086-340.256 0-616.086-275.833-616.086-616.086C7.313 276.91 283.143 1.08 623.399 1.08c340.253 0 616.083 275.83 616.083 616.086z"/><path opacity=".9" fill="#FFF" d="M1231.142 721.24c0 330.526-268.521 598.467-599.758 598.467-331.241 0-599.764-267.94-599.764-598.466 0-330.521 268.523-598.462 599.764-598.462 331.238 0 599.758 267.94 599.758 598.462z"/><path fill="#FFF" stroke="#333" stroke-width="1.413" stroke-linejoin="round" d="M1235.54 720.82c0 333.363-274.148 603.605-612.333 603.605-338.185 0-612.338-270.241-612.338-603.604 0-333.36 274.153-603.603 612.338-603.603 338.185 0 612.333 270.244 612.333 603.603z"/><path fill="none" stroke="#000" stroke-width="1.83" stroke-linejoin="round" d="M1250.825 727.46c0 342.73-279.701 620.569-624.726 620.569-345.029 0-624.729-277.84-624.729-620.568 0-342.73 279.701-620.57 624.729-620.57 345.025 0 624.726 277.838 624.726 620.57z"/><radialGradient id="a" cx="619.106" cy="1143.686" r="611.665" gradientTransform="matrix(1.0471 .0178 -.0179 1.0731 4.53 -511.723)" gradientUnits="userSpaceOnUse"><stop offset="0" stop-opacity="0"/><stop offset=".817" stop-opacity=".02"/><stop offset=".899" stop-opacity=".145"/><stop offset=".912" stop-opacity=".208"/><stop offset=".956" stop-opacity=".251"/><stop offset="1" stop-opacity=".333"/></radialGradient><path opacity=".75" fill="url(#a)" d="M1251.773 726.587c0 340.237-277.336 616.055-619.447 616.055-342.115 0-619.453-275.816-619.453-616.055 0-340.236 277.337-616.053 619.453-616.053 342.111.001 619.447 275.817 619.447 616.053z"/><g><path stroke="#FFF" d="M480.363 187.477c-83.218-2.079-167.519 53.017-188.549 135.459-4.897 19.986-6.895 38.935-7.25 58.235v214.778h84.396c.298-75.558-.428-150.712.574-226.423 2.597-48.083 39.745-98.771 91.313-98.183.376 76.525-.776 153.097.605 229.592 4.398 62.203 63.338 113.686 125.728 108.411 38.976-.946 78.245 2.271 116.967-2.447 58.959-11.054 99.764-71.104 94.281-129.797V271.659c53.637-3.917 94.311 48.149 96.689 98.183.996 75.711.279 150.874.574 226.423h84.396V368.397c-2.764-24.563-6.656-54.621-19.969-78.313-34.529-70.053-115.293-107.852-191.467-102.157-22.25-2.826-46.188 12.22-52.281 33.308.367 90.265.629 180.561-.051 270.809-2.543 37.809-39.803 66.719-76.984 61.92-26.305 1.143-56.02.045-73.958-22.557-24.18-25.557-16.079-62.134-17.498-93.888.063-73.319-.242-146.573.42-219.767-11.001-22.251-35.457-33.736-59.684-30.084l-4.009-.055-4.243-.136z"/><radialGradient id="b" cx="453.156" cy="919.59" r="96.05" gradientTransform="matrix(-.9512 -.3797 -.79 1.979 1374.069 -928.288)" gradientUnits="userSpaceOnUse"><stop offset="0" stop-color="#e6e6e6"/><stop offset="1" stop-color="#e6e6e6" stop-opacity="0"/></radialGradient><path opacity=".967" fill="url(#b)" d="M327.966 581.52v571.78c-112.938-12.39-201.705-135.636-201.705-285.89-.001-150.252 88.765-273.5 201.705-285.89z"/></g><g stroke="#FFF"><path d="M946.286 1137.927c-2.359-.024-11.178-1.943-13.303-.564 0 0-3.494 10.186-15.541 19.147-10.578 7.872-20.619 15.413-31.379 22.49-9.66 6.354-20.027 13.228-29.74 17.902-7.645 3.68-13.889 4.214-13.889 4.214H733.667c-6.795 0-12.359 5.355-12.359 12.023v2.955c0 6.669 5.564 12.132 12.359 12.132h114.371c2.631 0 12.145-2.77 17.799-5.25 14.102-6.188 23.289-14.063 39.531-23.724 17.262-11.042 49.193-36.75 49.193-36.75 5.67-3.674 7.184-11.102 3.438-16.666l-1.609-2.533c-2.34-3.473-6.172-5.339-10.104-5.376z"/><path opacity=".967" d="M938.947 581.866v571.777c112.938-12.39 201.703-135.639 201.703-285.889 0-150.252-88.766-273.501-201.703-285.888zM324.458 584.902v571.78c-112.938-12.389-201.704-135.642-201.704-285.889 0-150.252 88.765-273.5 201.704-285.891zM734.249 1210.855c.023 29.834-41.523 54.025-92.795 54.041-51.271.013-92.85-24.163-92.875-53.99v-.051c-.021-29.826 41.522-54.021 92.795-54.033 51.271-.014 92.854 24.155 92.875 53.989v.044z"/><path opacity=".967" stroke-width="1.054" d="M902.665 572.616h18.629c7.201 0 13.041 5.35 13.041 11.95v556.565c0 6.604-5.84 11.953-13.041 11.953h-18.629c-7.203 0-13.043-5.351-13.043-11.953V584.566c0-6.6 5.84-11.95 13.043-11.95z"/><path opacity=".967" stroke-width="1.043" d="M340.982 575.973h18.257c7.062 0 12.782 5.351 12.782 11.951v556.603c0 6.6-5.721 11.948-12.782 11.948h-18.257c-7.058 0-12.779-5.35-12.779-11.948V587.925c0-6.601 5.722-11.952 12.779-11.952z"/></g><g><path d="M406.304 686.23h452.792v359.719H406.304z"/><radialGradient id="c" cx="491.712" cy="922.357" r="62.923" gradientTransform="matrix(1.1007 0 0 2.5563 -28.718 -1490.714)" gradientUnits="userSpaceOnUse"><stop offset="0" stop-color="#b3b3b3"/><stop offset="1" stop-color="#b3b3b3" stop-opacity="0"/></radialGradient><path fill="url(#c)" d="M578.366 925.08c0 14.873-1.548 27.935-4.646 39.187-3.096 11.257-7.262 20.565-12.496 27.936-6.192 8.841-12.996 15.136-20.402 18.888-7.41 3.749-16.829 5.627-28.257 5.627h-65.913V717.502h58.169c12.091 0 21.252.837 27.482 2.512 6.231 1.676 12.075 5.191 17.529 10.548 5.898 5.766 10.305 13.464 13.215 23.108 2.914 9.647 4.37 20.766 4.37 33.358 0 14.604-2.01 27.599-6.028 38.986-4.02 11.384-9.566 19.761-16.645 25.117v1.606c10.174 3.888 18.32 11.824 24.439 23.813 6.122 11.994 9.183 28.171 9.183 48.53zm-52.973-122.977c0-4.823-.681-9.783-2.047-14.873-1.363-5.09-3.482-8.774-6.358-11.052-2.729-2.145-5.953-3.315-9.677-3.517-3.724-.202-9.271-.303-16.644-.303h-2.876v63.301h5.198c7.077 0 12.035-.136 14.873-.401 2.838-.271 5.771-1.677 8.791-4.22 3.319-2.813 5.604-6.7 6.857-11.655 1.255-4.956 1.883-10.717 1.883-17.28zm10.395 121.57c0-9.243-1.032-16.479-3.096-21.702-2.065-5.225-5.162-9.174-9.291-11.855-2.505-1.738-5.953-2.713-10.339-2.912-4.389-.201-10.267-.303-17.642-.303h-7.629v74.954h2.213c10.763 0 18.21-.135 22.339-.4 4.128-.269 8.33-2.076 12.604-5.426 3.763-2.948 6.506-7.27 8.239-12.961 1.735-5.693 2.602-12.161 2.602-19.395z"/><path fill="#FFF" d="M563.965 924.062c0 14.869-1.548 27.932-4.645 39.188-3.096 11.252-7.262 20.562-12.496 27.934-6.194 8.843-12.995 15.135-20.404 18.89-7.41 3.749-16.829 5.626-28.254 5.626h-65.912V716.483h58.169c12.091 0 21.253.838 27.481 2.513 6.229 1.675 12.072 5.192 17.529 10.55 5.896 5.761 10.301 13.463 13.215 23.106 2.911 9.646 4.367 20.768 4.367 33.359 0 14.604-2.009 27.596-6.025 38.986-4.018 11.385-9.565 19.758-16.646 25.118v1.606c10.176 3.885 18.324 11.821 24.442 23.813 6.12 11.988 9.179 28.168 9.179 48.528zm-52.974-122.978c0-4.823-.681-9.78-2.044-14.87-1.365-5.089-3.484-8.775-6.36-11.055-2.727-2.143-5.953-3.315-9.678-3.518-3.721-.201-9.269-.298-16.644-.302h-2.873v63.303h5.196c7.077 0 12.035-.138 14.876-.4 2.838-.271 5.768-1.678 8.792-4.221 3.314-2.813 5.601-6.7 6.856-11.658 1.254-4.957 1.879-10.715 1.879-17.279zm10.395 121.572c0-9.243-1.03-16.479-3.096-21.701-2.063-5.226-5.162-9.176-9.291-11.855-2.506-1.74-5.953-2.713-10.34-2.914-4.386-.201-10.267-.302-17.639-.302h-7.63v74.955h2.21c10.763 0 18.21-.136 22.339-.405 4.129-.264 8.33-2.071 12.606-5.426 3.761-2.945 6.508-7.265 8.24-12.961 1.735-5.689 2.601-12.158 2.601-19.391z"/><radialGradient id="d" cx="622.878" cy="886.163" r="53.025" gradientTransform="matrix(1.1007 0 0 3.0333 -28.718 -1820.888)" gradientUnits="userSpaceOnUse"><stop offset="0" stop-color="#b3b3b3"/><stop offset="1" stop-color="#b3b3b3" stop-opacity="0"/></radialGradient><path fill="url(#d)" d="M711.847 1016.715H601.921V717.502h41.362v242.143h68.564v57.07z"/><path fill="#FFF" d="M585.308 714.304v303.924H699.644v-61.891h-68.721V714.304h-45.615z"/><radialGradient id="e" cx="741.286" cy="888.552" r="53.677" gradientTransform="matrix(1.1007 0 0 2.9964 -28.718 -1795.347)" gradientUnits="userSpaceOnUse"><stop offset="0" stop-color="#b3b3b3"/><stop offset="1" stop-color="#b3b3b3" stop-opacity="0"/></radialGradient><path fill="url(#e)" d="M731.534 1016.715V717.502h111.361v57.068H772.67v52.448h64.695v57.067H772.67v75.558h70.225v57.07l-111.361.002z"/><path fill="#FFF" d="M715.519 714.103v303.925h114.334v-61.892h-68.721v-71.635h63.195V824.52h-63.195v-48.526h68.721v-61.891H715.519z"/></g><g><radialGradient id="f" cx="1132.244" cy="1679.729" r="332.577" gradientTransform="matrix(.4173 -.0106 .0089 .3481 147.62 -73.835)" gradientUnits="userSpaceOnUse"><stop offset="0" stop-color="#bebebe"/><stop offset="1" stop-color="#b3b3b3" stop-opacity="0"/></radialGradient><path fill="url(#f)" d="M482.608 185.259c-83.218-2.078-167.516 53.016-188.546 135.46-4.897 19.985-6.897 38.934-7.25 58.235v214.777h84.396c.298-75.557-.428-150.711.573-226.423 2.595-48.082 39.743-98.769 91.31-98.182.38 76.523-.772 153.097.608 229.591 4.398 62.204 63.337 113.686 125.727 108.411 38.975-.945 78.245 2.272 116.963-2.446 58.961-11.053 99.768-71.104 94.281-129.799V269.441c53.637-3.917 94.314 48.15 96.693 98.185.996 75.711.277 150.872.574 226.423h84.393V366.182c-2.76-24.563-6.654-54.622-19.965-78.313-34.531-70.054-115.297-107.852-191.469-102.157-22.248-2.826-46.188 12.22-52.279 33.308.367 90.266.625 180.561-.051 270.809-2.543 37.809-39.803 66.719-76.988 61.918-26.304 1.143-56.016.047-73.956-22.557-24.178-25.555-16.08-62.133-17.499-93.886.065-73.318-.239-146.573.424-219.767-11.004-22.251-35.457-33.736-59.684-30.084l-4.009-.056-4.246-.138z"/><radialGradient id="g" cx="471.464" cy="857.156" r="124.182" gradientTransform="matrix(-1.1864 .795 .2118 .3161 823 -462.607)" gradientUnits="userSpaceOnUse"><stop offset="0" stop-color="#afafaf"/><stop offset="1" stop-color="#e6e6e6" stop-opacity="0"/></radialGradient><path fill="url(#g)" d="M479.915 189.304c-101.771 0-180.587 68.268-192.842 156.764h86.715c11.719-39.948 42.16-69.179 78.805-72.578 2.38-2.25 5.698-3.692 9.388-3.692h85.557l.317-50.215s-7.647-11.979-13.821-17.618c-6.991-6.391-16.433-11.022-25.738-12.027-7.801-.843-16.721-.133-28.381-.634z"/><radialGradient id="h" cx="544.792" cy="1799.913" r="72.758" gradientTransform="matrix(1.3048 0 0 .7692 -69.342 -230.024)" gradientUnits="userSpaceOnUse"><stop offset="0" stop-color="#999"/><stop offset="1" stop-color="#999" stop-opacity="0"/></radialGradient><path opacity=".967" fill="url(#h)" d="M734.337 1210.51c.021 29.831-41.523 54.022-92.793 54.038-51.273.013-92.855-24.16-92.876-53.987v-.051c-.022-29.83 41.521-54.021 92.794-54.034 51.27-.016 92.854 24.157 92.875 53.987v.047z"/><radialGradient id="i" cx="903.966" cy="1161.61" r="96.05" gradientTransform="matrix(.5466 -.2774 .6405 1.262 -177.81 -486.888)" gradientUnits="userSpaceOnUse"><stop offset="0" stop-color="#969696"/><stop offset="1" stop-color="#e6e6e6" stop-opacity="0"/></radialGradient><path opacity=".967" fill="url(#i)" d="M943.284 584.716v571.778c112.939-12.389 201.705-135.634 201.705-285.889.001-150.252-88.765-273.5-201.705-285.889z"/><radialGradient id="j" cx="699.332" cy="278.123" r="124.181" gradientTransform="matrix(1.1864 .795 -.2118 .3161 44.242 -463.453)" gradientUnits="userSpaceOnUse"><stop offset="0" stop-color="#afafaf"/><stop offset="1" stop-color="#e6e6e6" stop-opacity="0"/></radialGradient><path fill="url(#j)" d="M780.322 186.585c101.773 0 180.586 68.267 192.844 156.764H886.45c-11.721-39.952-42.164-69.181-78.807-72.581-2.381-2.25-5.695-3.691-9.389-3.691h-85.559l-.313-50.216s7.646-11.977 13.816-17.616c6.996-6.392 16.438-11.023 25.744-12.026 7.799-.843 16.719-.134 28.38-.634z"/><radialGradient id="k" cx="320.911" cy="1031.513" r="96.051" gradientTransform="matrix(-.5466 -.2774 -.6405 1.262 1049.132 -487.991)" gradientUnits="userSpaceOnUse"><stop offset="0" stop-color="#969696"/><stop offset="1" stop-color="#e6e6e6" stop-opacity="0"/></radialGradient><path opacity=".967" fill="url(#k)" d="M330.062 581.167v571.78c-112.938-12.39-201.704-135.639-201.704-285.89 0-150.253 88.766-273.501 201.704-285.89z"/></g></svg>