<?xml version="1.0" encoding="UTF-8" standalone="no"?>
<svg
   xmlns:dc="http://purl.org/dc/elements/1.1/"
   xmlns:cc="http://creativecommons.org/ns#"
   xmlns:rdf="http://www.w3.org/1999/02/22-rdf-syntax-ns#"
   xmlns:svg="http://www.w3.org/2000/svg"
   xmlns="http://www.w3.org/2000/svg"
   xmlns:sodipodi="http://sodipodi.sourceforge.net/DTD/sodipodi-0.dtd"
   xmlns:inkscape="http://www.inkscape.org/namespaces/inkscape"
   id="Lager_1"
   version="1.1"
   viewBox="0 0 73.744743 57.208656"
   xml:space="preserve"
   sodipodi:docname="zeplin.svg"
   width="73.744743"
   height="57.208656"
   inkscape:version="0.92.3 (2405546, 2018-03-11)"><metadata
     id="metadata3785"><rdf:RDF><cc:Work
         rdf:about=""><dc:format>image/svg+xml</dc:format><dc:type
           rdf:resource="http://purl.org/dc/dcmitype/StillImage" /><dc:title></dc:title></cc:Work></rdf:RDF></metadata><defs
     id="defs3783" /><sodipodi:namedview
     pagecolor="#ffffff"
     bordercolor="#666666"
     borderopacity="1"
     objecttolerance="10"
     gridtolerance="10"
     guidetolerance="10"
     inkscape:pageopacity="0"
     inkscape:pageshadow="2"
     inkscape:window-width="1920"
     inkscape:window-height="1017"
     id="namedview3781"
     showgrid="false"
     fit-margin-top="0"
     fit-margin-left="0"
     fit-margin-right="0"
     fit-margin-bottom="0"
     inkscape:zoom="6.625"
     inkscape:cx="40.3"
     inkscape:cy="28.102355"
     inkscape:window-x="-8"
     inkscape:window-y="-8"
     inkscape:window-maximized="1"
     inkscape:current-layer="Lager_1" /><style
     type="text/css"
     id="style3750">
	.st0{fill:#E1F6FF;}
	.st1{fill:#FD6D0B;}
	.st2{fill:#FFBE22;}
	.st3{fill:#F89920;}
	.st4{fill:#F0670B;}
	.st5{fill:#FFD00E;}
</style><g
     id="g3778"
     transform="translate(-23.7,-34.893698)"><path
       class="st1"
       d="M 62.8,85.7 C 62.6,85.1 62.4,84.4 62.2,83.8 60.6,78.6 59.4,71.5 58.7,64 57.6,50.2 58.7,35.3 63,34.9 c 2.4,-0.2 4.3,4.4 5.5,8.2 1.6,5.2 2.8,12.3 3.5,19.8 1.1,13.8 0,28.7 -4.3,29.1 -2.1,0.1 -3.8,-3 -4.9,-6.3 z m 4.1,-44.2 c -1.5,-4.2 -3,-5.7 -3.9,-5.6 -2.7,0.2 -4.7,11.8 -3.3,28 0.6,7.5 1.8,14.4 3.4,19.6 1.7,5.7 3.5,7.6 4.5,7.5 2.7,-0.2 4.7,-11.8 3.3,-28 C 70.3,55.5 69.1,48.6 67.5,43.4 67.3,42.7 67.1,42 66.9,41.5 Z"
       id="path3760"
       inkscape:connector-curvature="0"
       style="fill:#fd6d0b" /><path
       class="st1"
       d="M 49.2,47.8 C 48,44.5 47.3,41 49,39.8 c 3.5,-2.5 13.9,8.3 21.8,19.7 4.3,6.2 7.8,12.4 9.9,17.5 1.5,3.7 3,8.5 1,9.8 C 78.2,89.3 67.8,78.5 59.9,67.1 55.5,61 52,54.8 49.9,49.7 49.6,49.1 49.4,48.5 49.2,47.8 Z M 80.5,79.3 C 80.3,78.7 80.1,78.1 79.8,77.4 77.7,72.4 74.2,66.3 70,60.1 60.7,46.7 51.8,39.1 49.6,40.6 c -0.8,0.6 -0.9,3.2 1.3,8.6 2.1,5 5.6,11.1 9.8,17.3 9.3,13.4 18.2,21 20.4,19.5 0.7,-0.4 0.9,-2.5 -0.6,-6.7 z"
       id="path3762"
       inkscape:connector-curvature="0"
       style="fill:#fd6d0b" /><polygon
       class="st2"
       points="31.2,75.8 30.9,87.2 41.6,83.3 52.4,79.4 48.8,69.5 "
       id="polygon3764"
       style="fill:#ffbe22" /><polygon
       class="st3"
       points="34.4,63.3 23.7,67.2 31.2,75.8 48.8,69.5 45.2,59.5 "
       id="polygon3766"
       style="fill:#f89920" /><path
       class="st4"
       d="M 96.8,52.2 C 99.2,58.7 87.2,69 70.1,75.2 53,81.3 37.2,81 34.8,74.5 38.2,84.1 54.9,86.9 72,80.7 89.2,74.5 100.3,61.8 96.8,52.2 Z"
       id="path3768"
       inkscape:connector-curvature="0"
       style="fill:#f0670b" /><path
       class="st3"
       d="M 70.1,75.2 C 87.2,69 99.2,58.8 96.8,52.2 l -62,22.3 c 2.4,6.5 18.2,6.8 35.3,0.7 z"
       id="path3770"
       inkscape:connector-curvature="0"
       style="fill:#f89920" /><path
       class="st5"
       d="M 61.6,51.5 C 78.7,45.3 94.5,45.7 96.9,52.2 93.5,42.6 76.8,39.8 59.7,46 42.6,52.2 31.4,64.9 34.8,74.5 32.5,67.9 44.4,57.6 61.6,51.5 Z"
       id="path3772"
       inkscape:connector-curvature="0"
       style="fill:#ffd00e" /><path
       class="st2"
       d="m 61.6,51.5 c -17.1,6.2 -29.1,16.4 -26.7,23 l 62,-22.3 C 94.5,45.6 78.7,45.3 61.6,51.5 Z"
       id="path3774"
       inkscape:connector-curvature="0"
       style="fill:#ffbe22" /><path
       class="st1"
       d="M 63.1,83.4 C 61.8,79.1 60.7,73.5 60,67.4 67.9,78.7 78.1,89.3 81.6,86.9 L 81,86.1 C 78.8,87.6 69.9,80 60.6,66.6 60.3,66.2 60,65.8 59.7,65.4 c 0,-0.5 -0.1,-1 -0.1,-1.5 -1.3,-16.2 0.7,-27.8 3.3,-28 l -0.1,-1 c -4.3,0.4 -5.4,15 -4.3,28.8 C 55.1,58.6 52.4,53.6 50.7,49.4 48.4,43.9 48.5,41.3 49.4,40.8 L 48.8,40 c -1.7,1.2 -0.9,4.7 0.2,8 0.2,0.6 0.5,1.3 0.7,1.9 1.9,4.7 5.1,10.3 8.9,16 0.7,6.9 1.8,13.2 3.3,18 0.2,0.6 0.4,1.3 0.6,1.9 1.2,3.3 2.9,6.4 4.9,6.3 l -0.1,-1 c -0.8,-0.1 -2.5,-2 -4.2,-7.7 z"
       id="path3776"
       inkscape:connector-curvature="0"
       style="fill:#fd6d0b" /></g></svg>