<?xml version="1.0" ?><svg id="Lager_1" style="enable-background:new 0 0 128 128;" version="1.1" viewBox="0 0 128 128" xml:space="preserve" xmlns="http://www.w3.org/2000/svg" xmlns:xlink="http://www.w3.org/1999/xlink"><style type="text/css">
	.st0{fill:#E1F6FF;}
	.st1{fill:#FD6D0B;}
	.st2{fill:#FFBE22;}
	.st3{fill:#F89920;}
	.st4{fill:#F0670B;}
	.st5{fill:#FFD00E;}
</style><g><g><g><circle class="st0" cx="64" cy="64" r="50"/></g></g></g><g><path class="st1" d="M62.8,85.7c-0.2-0.6-0.4-1.3-0.6-1.9c-1.6-5.2-2.8-12.3-3.5-19.8c-1.1-13.8,0-28.7,4.3-29.1   c2.4-0.2,4.3,4.4,5.5,8.2c1.6,5.2,2.8,12.3,3.5,19.8c1.1,13.8,0,28.7-4.3,29.1C65.6,92.1,63.9,89,62.8,85.7z M66.9,41.5   c-1.5-4.2-3-5.7-3.9-5.6c-2.7,0.2-4.7,11.8-3.3,28c0.6,7.5,1.8,14.4,3.4,19.6c1.7,5.7,3.5,7.6,4.5,7.5c2.7-0.2,4.7-11.8,3.3-28   c-0.6-7.5-1.8-14.4-3.4-19.6C67.3,42.7,67.1,42,66.9,41.5z"/><path class="st1" d="M49.2,47.8c-1.2-3.3-1.9-6.8-0.2-8c3.5-2.5,13.9,8.3,21.8,19.7c4.3,6.2,7.8,12.4,9.9,17.5c1.5,3.7,3,8.5,1,9.8   c-3.5,2.5-13.9-8.3-21.8-19.7C55.5,61,52,54.8,49.9,49.7C49.6,49.1,49.4,48.5,49.2,47.8z M80.5,79.3c-0.2-0.6-0.4-1.2-0.7-1.9   c-2.1-5-5.6-11.1-9.8-17.3c-9.3-13.4-18.2-21-20.4-19.5c-0.8,0.6-0.9,3.2,1.3,8.6c2.1,5,5.6,11.1,9.8,17.3   c9.3,13.4,18.2,21,20.4,19.5C81.8,85.6,82,83.5,80.5,79.3z"/><polygon class="st2" points="48.8,69.5 31.2,75.8 30.9,87.2 41.6,83.3 52.4,79.4  "/><polygon class="st3" points="45.2,59.5 34.4,63.3 23.7,67.2 31.2,75.8 48.8,69.5  "/><path class="st4" d="M96.8,52.2c2.4,6.5-9.6,16.8-26.7,23C53,81.3,37.2,81,34.8,74.5c3.4,9.6,20.1,12.4,37.2,6.2   C89.2,74.5,100.3,61.8,96.8,52.2z"/><path class="st3" d="M70.1,75.2c17.1-6.2,29.1-16.4,26.7-23l-62,22.3C37.2,81,53,81.3,70.1,75.2z"/><path class="st5" d="M61.6,51.5c17.1-6.2,32.9-5.8,35.3,0.7c-3.4-9.6-20.1-12.4-37.2-6.2S31.4,64.9,34.8,74.5   C32.5,67.9,44.4,57.6,61.6,51.5z"/><path class="st2" d="M61.6,51.5c-17.1,6.2-29.1,16.4-26.7,23l62-22.3C94.5,45.6,78.7,45.3,61.6,51.5z"/><path class="st1" d="M63.1,83.4c-1.3-4.3-2.4-9.9-3.1-16c7.9,11.3,18.1,21.9,21.6,19.5l-0.6-0.8c-2.2,1.5-11.1-6.1-20.4-19.5   c-0.3-0.4-0.6-0.8-0.9-1.2c0-0.5-0.1-1-0.1-1.5c-1.3-16.2,0.7-27.8,3.3-28l-0.1-1c-4.3,0.4-5.4,15-4.3,28.8   c-3.4-5.1-6.1-10.1-7.8-14.3c-2.3-5.5-2.2-8.1-1.3-8.6l-0.6-0.8c-1.7,1.2-0.9,4.7,0.2,8c0.2,0.6,0.5,1.3,0.7,1.9   c1.9,4.7,5.1,10.3,8.9,16c0.7,6.9,1.8,13.2,3.3,18c0.2,0.6,0.4,1.3,0.6,1.9c1.2,3.3,2.9,6.4,4.9,6.3l-0.1-1   C66.5,91,64.8,89.1,63.1,83.4z"/></g></svg>