<svg data-name="Layer 1" xmlns="http://www.w3.org/2000/svg" viewBox="0 0 128 128" width="2500" height="2500"><defs><linearGradient id="a" y1="-689.46" x2="128" y2="-689.46" gradientTransform="matrix(1 0 0 -1 0 -648.86)" gradientUnits="userSpaceOnUse"><stop offset=".06" stop-color="#2b86d0"/><stop offset=".89" stop-color="#21d789"/></linearGradient><linearGradient id="b" x1="36.47" y1="-659.5" x2="81.53" y2="-757.05" gradientTransform="matrix(1 0 0 -1 0 -648.86)" gradientUnits="userSpaceOnUse"><stop offset=".17" stop-color="#f1eb5e"/><stop offset=".58" stop-color="#26adae"/><stop offset=".63" stop-color="#28a1b9"/><stop offset=".72" stop-color="#2992c6"/><stop offset=".79" stop-color="#2a8dca"/><stop offset="1" stop-color="#2b86d0"/></linearGradient></defs><title>icon_MPS</title><path fill="#21d789" d="M21 59l82.6 15.6-26 53.4L0 111.4 21 59z"/><path fill="url(#a)" d="M89.2.2L0 22.2l3.8 46.6 59.4-6L99.8 81l4.8-9L128 28.6 89.2.2z"/><path fill="url(#b)" d="M57.6 0L3.8 68.8l110.6 29 13-19.2L57.6 0z"/><g><path d="M24 24h80v80H24z"/><g fill="#fff"><path d="M31.6 89h30v5h-30zM31.4 34.2H37l6.4 10.2 6.2-10.2h5.8v24h-5.2L50 42.4l-6.6 10.4h-.2l-6.6-10.2v15.6h-5.2v-24zM58 34.2h9.8c5.8 0 9.2 3.4 9.2 8.2 0 5.6-4.4 8.4-9.6 8.4h-4V58h-5.2zm9.6 12.2a3.9 3.9 0 0 0 4.2-3.8c0-2.4-1.6-3.6-4.2-3.6h-4v7.4h4zM78.4 54.6l3.2-3.8c2.2 1.8 4.4 3 7.2 3 2.2 0 3.4-.8 3.4-2.2 0-1.4-.8-2-4.8-3-4.8-1.2-8-2.6-8-7.4 0-4.4 3.4-7.2 8.4-7.2a13.41 13.41 0 0 1 8.8 3l-2.8 4c-2.2-1.4-4.2-2.4-6.2-2.4s-3 1-3 2c0 1.6 1 2 5.2 3.2 4.8 1.2 7.6 3 7.6 7.2 0 4.8-3.6 7.4-8.8 7.4a14.7 14.7 0 0 1-10.2-3.8"/></g></g></svg>