<svg data-name="Layer 1" xmlns="http://www.w3.org/2000/svg" viewBox="0 0 128 128" width="2500" height="2500"><defs><linearGradient id="a" x1="14.8" y1="-678.33" x2="53.57" y2="-776.37" gradientTransform="matrix(1 0 0 -1 0 -648.86)" gradientUnits="userSpaceOnUse"><stop offset=".22" stop-color="#c40b55"/><stop offset=".68" stop-color="#e343e6"/><stop offset=".92" stop-color="#f59252"/></linearGradient><linearGradient id="b" x1="360.23" y1="-782.86" x2="455.02" y2="-682.03" gradientTransform="rotate(180 227.92 -324.43)" gradientUnits="userSpaceOnUse"><stop offset=".11" stop-color="#ffbd00"/><stop offset=".59" stop-color="#e343e6"/><stop offset=".82" stop-color="#ec841b"/><stop offset=".94" stop-color="#ffbd00"/></linearGradient><linearGradient id="c" x1="46.63" y1="-645.31" x2="127.92" y2="-742.41" gradientTransform="matrix(1 0 0 -1 0 -648.86)" gradientUnits="userSpaceOnUse"><stop offset=".13" stop-color="#ffbd00"/><stop offset=".64" stop-color="#e343e6"/><stop offset=".91" stop-color="#c40b55"/></linearGradient></defs><title>icon_ReSharperC++</title><path fill="url(#a)" d="M36.8 27.8L62.2 67l-41 61L0 42.2l36.8-14.4z"/><path fill="url(#b)" d="M34.6 28.6L38.4 0l55.2 61.4-16 15.8L90 128H21.2l13.4-99.4z"/><path fill="url(#c)" d="M64.4 86H128L106.8 0H38.4l26 86z"/><g><path d="M24 24h80v80H24z"/><path d="M31.4 34.4h15.2c4.2 0 7.4 1.2 9.6 3.4a10.43 10.43 0 0 1 2.8 7.6 10.37 10.37 0 0 1-2 6.6 12.57 12.57 0 0 1-5.2 3.8L60 67.6h-8.6l-6.8-10.2h-6v10.2h-7.2V34.4zm14.8 16.15a6.59 6.59 0 0 0 4.2-1.35 4.12 4.12 0 0 0 1.4-3.4 4.39 4.39 0 0 0-1.6-3.6A6.56 6.56 0 0 0 46 41h-7.2v9.6l7.4-.05zM31.4 89h30v5h-30zM80.2 44.4h-7.4v-6.6h7.4v-7.4H87v7.4h7.4v6.6H87v7.4h-6.8v-7.4zM68 63.2h-7.4v-6.6H68v-7.4h6.8v7.4h7.4v6.6h-7.4v7.4H68v-7.4z" fill="#fff"/></g></svg>