<?xml version="1.0" encoding="UTF-8" standalone="no"?>
<svg
   xmlns:dc="http://purl.org/dc/elements/1.1/"
   xmlns:cc="http://creativecommons.org/ns#"
   xmlns:rdf="http://www.w3.org/1999/02/22-rdf-syntax-ns#"
   xmlns:svg="http://www.w3.org/2000/svg"
   xmlns="http://www.w3.org/2000/svg"
   xmlns:sodipodi="http://sodipodi.sourceforge.net/DTD/sodipodi-0.dtd"
   xmlns:inkscape="http://www.inkscape.org/namespaces/inkscape"
   enable-background="new 0 0 512 512"
   height="352"
   version="1.1"
   viewBox="0 0 336 352"
   width="336"
   xml:space="preserve"
   id="svg28"
   sodipodi:docname="openoffice.svg"
   inkscape:version="0.92.3 (2405546, 2018-03-11)"><metadata
     id="metadata34"><rdf:RDF><cc:Work
         rdf:about=""><dc:format>image/svg+xml</dc:format><dc:type
           rdf:resource="http://purl.org/dc/dcmitype/StillImage" /><dc:title></dc:title></cc:Work></rdf:RDF></metadata><defs
     id="defs32" /><sodipodi:namedview
     pagecolor="#ffffff"
     bordercolor="#666666"
     borderopacity="1"
     objecttolerance="10"
     gridtolerance="10"
     guidetolerance="10"
     inkscape:pageopacity="0"
     inkscape:pageshadow="2"
     inkscape:window-width="640"
     inkscape:window-height="480"
     id="namedview30"
     showgrid="false"
     fit-margin-top="0"
     fit-margin-left="0"
     fit-margin-right="0"
     fit-margin-bottom="0"
     inkscape:zoom="0.4609375"
     inkscape:cx="168"
     inkscape:cy="168"
     inkscape:window-x="0"
     inkscape:window-y="0"
     inkscape:window-maximized="0"
     inkscape:current-layer="svg28" /><g
     id="guides"
     transform="translate(-88,-72)" /><g
     id="icon"
     transform="translate(-88,-72)"><polygon
       points="115.155,72 88,112.733 88,424 424,424 424,112.733 396.845,72 "
       id="polygon3"
       style="fill:#231f20" /><rect
       height="280"
       width="288"
       x="112"
       y="120"
       id="rect5"
       style="fill:#85949d" /><polygon
       points="112,120 400,120 384,96 128,96 "
       id="polygon7"
       style="fill:#6f8089" /><rect
       height="280"
       width="112"
       x="112"
       y="120"
       id="rect9"
       style="fill:#274151" /><polygon
       points="112,120 224,120 224,96 128,96 "
       id="polygon11"
       style="fill:#1c323d" /><polygon
       points="400,120 394.666,112 117.333,112 112,120 "
       id="polygon13"
       style="fill:#9dabb2" /><polygon
       points="224,120 224,112 117.333,112 112,120 "
       id="polygon15"
       style="fill:#345160" /><rect
       height="16"
       width="112"
       x="256"
       y="352"
       id="rect17"
       style="fill:#ffffff" /><rect
       height="16"
       width="112"
       x="256"
       y="272"
       id="rect19"
       style="fill:#ffffff" /><rect
       height="16"
       width="112"
       x="256"
       y="312"
       id="rect21"
       style="fill:#ffffff" /><path
       d="M 224,238.709 C 239.267,217.684 264.029,204 292,204 c 5.803,0 11.469,0.589 16.94,1.709 C 297.551,197.107 283.373,192 268,192 c -16.785,0 -32.139,6.094 -44,16.174 C 212.139,198.094 196.785,192 180,192 c -15.373,0 -29.55,5.107 -40.94,13.709 5.472,-1.12 11.137,-1.709 16.94,-1.709 27.971,0 52.733,13.684 68,34.709 z"
       id="path23"
       inkscape:connector-curvature="0"
       style="fill:#ffffff" /><path
       d="m 268,168 c 11.471,-10.869 26.95,-17.549 44,-17.549 5.496,0 10.83,0.695 15.921,1.998 -9.058,-6.297 -20.054,-9.998 -31.921,-9.998 -10.203,0 -19.761,2.743 -28,7.51 -8.238,-4.768 -17.796,-7.51 -28,-7.51 -11.866,0 -22.863,3.701 -31.92,9.998 5.09,-1.303 10.424,-1.998 15.92,-1.998 17.049,0 32.529,6.68 44,17.549 z"
       id="path25"
       inkscape:connector-curvature="0"
       style="fill:#ffffff" /></g></svg>