<svg id="Layer_1" xmlns="http://www.w3.org/2000/svg" viewBox="0 0 373 362.4" enable-background="new 0 0 373 362.4" width="2500" height="2429"><style>.st0{fill:#f7c049}.st1{filter:url(#Adobe_OpacityMaskFilter)}.st2{fill:#fff}.st3{mask:url(#tunnelbear-b_1_);fill:#dda332}.st4{fill:#ffd55e}.st5{fill:#614b2b}.st6{filter:url(#Adobe_OpacityMaskFilter_1_)}.st7{mask:url(#tunnelbear-d_1_);fill:#aa7a3b}.st8{fill:#4c2915}.st9{fill:#aa7a3b}.st10{fill:#d4b589}.st11{fill:#230700}.st12{fill:#fffeee}.st13{fill:#563926}</style><g transform="translate(29 142)"><g transform="translate(13 98)"><path id="tunnelbear-a_1_" class="st0" d="M-6-.6h321v123H-6z"/><defs><filter id="Adobe_OpacityMaskFilter" filterUnits="userSpaceOnUse" x="-19" y="-37.6" width="350" height="101"><feColorMatrix values="1 0 0 0 0 0 1 0 0 0 0 0 1 0 0 0 0 0 1 0"/></filter></defs><mask maskUnits="userSpaceOnUse" x="-19" y="-37.6" width="350" height="101" id="tunnelbear-b_1_"><g class="st1"><path id="tunnelbear-a_2_" class="st2" d="M-6-.6h321v123H-6z"/></g></mask><path class="st3" d="M-19 18.4v-56h350v56.5c0 24.6-78.4 44.5-175 44.5s-175-20-175-44.5v-.5z"/></g><path class="st0" d="M-6 100.4v-56h350v56.5c0 24.6-78.4 44.5-175 44.5s-175-20-175-44.5v-.5z"/><ellipse class="st4" cx="169" cy="43.9" rx="175" ry="44.5"/><g transform="translate(33 13)"><ellipse id="tunnelbear-c_1_" class="st5" cx="136" cy="29.9" rx="142" ry="30.5"/><defs><filter id="Adobe_OpacityMaskFilter_1_" filterUnits="userSpaceOnUse" x="-55.3" y="-155" width="350.5" height="226.9"><feColorMatrix values="1 0 0 0 0 0 1 0 0 0 0 0 1 0 0 0 0 0 1 0"/></filter></defs><mask maskUnits="userSpaceOnUse" x="-55.3" y="-155" width="350.5" height="226.9" id="tunnelbear-d_1_"><g class="st6"><ellipse id="tunnelbear-c_2_" class="st2" cx="136" cy="29.9" rx="142" ry="30.5"/></g></mask><path class="st7" d="M57.5 55.4c3-24.3 7-43.3 12-57-10 2-21.5 7-29 2.5s-30-21.5-46.5-34-38-22-41-24.5-14.5-12.5-4-25c12-14.3 25.5-5 31-1.5s58.5 31.5 62.5 31.5S84-68.1 90-70.1c-1.3-8.7-1.5-24-.5-46l23-26c6.6-4.3 14.8-6.5 24.5-6.5 6.7 0 15.3 2.5 26 7.5l-5-4c6-9 12.8-11.8 20.5-8.5s9.5 11.5 5.5 24.5c12 65 24.2 101.7 36.5 110 6.5 0 31.5-16.5 33.5-25s-1-16.5 7-24c2.7-2.5 9.2-7.5 24.5 2.5 8.7 5.7 11.5 11.7 8.5 18-5.3 10-8.3 15.3-9 16s-2.7 2.5-6 5.5C256.3 2.2 240.7 22 232 33.4c-13 17-13.5 18.5-17 18.5-2.3 0-9.5-5.3-21.5-16v20.5l-70 15.5-66-16.5z"/></g></g><path class="st8" d="M9 90.4C1.6 83.1-1.2 77.5.5 73.6c2.7 6.1 5 8.3 7 6.7-3.6-7.2-4.8-11.8-3.4-13.7 1.6 5.1 3.7 7.4 6.4 7-3.3-6.1-3.9-9.8-2-11.3 1.6 5.1 3.6 7.7 6 7.9-2.6-6.9-3-10.9-1.3-11.9 2 5.3 4.5 7.6 7.5 7-1.7-7.2-1.7-10.9 0-11.2C23 60 26.3 64.2 30.8 66.5L9 90.4zM357.5 104.4c2.7-8 2.5-13.5-.5-16.5-.3 6.7-1.7 9.4-4 8.3.3-8.5-.5-13.4-2.5-14.8.3 5.3-1.2 8.8-4.5 10.5.3-9.3-.7-14.3-3-15 .3 5.3-.7 9.3-3 11.8-.7-8.8-2-13.4-4-13.8 0 5.7-1.5 9.3-4.5 11-1.7-8.7-3.3-12.8-5-12.5 0 6.3-1.7 11.4-5 15.3l36 15.7z"/><path class="st9" d="M119.5 210.4c3-24.3 7-43.3 12-57-10 2-21.5 7-29 2.5s-30-21.5-46.5-34-38-22-41-24.5-14.5-12.5-4-25c12-14.3 25.5-5 31-1.5s58.5 31.5 62.5 31.5S146 86.9 152 84.9c-1.3-8.7-1.5-24-.5-46l23-26c6.6-4.3 14.8-6.5 24.5-6.5 6.7 0 15.3 2.5 26 7.5l-5-4c6-9 12.8-11.8 20.5-8.5s9.5 11.5 5.5 24.5c12 65 24.2 101.7 36.5 110 6.5 0 31.5-16.5 33.5-25s-1-16.5 7-24c2.7-2.5 9.2-7.5 24.5 2.5 8.7 5.7 11.5 11.7 8.5 18-5.3 10-8.3 15.3-9 16s-2.7 2.5-6 5.5c-22.7 28.3-38.3 48.2-47 59.5-13 17-13.5 18.5-17 18.5-2.3 0-9.5-5.3-21.5-16v20.5l-68-4.5-68 3.5z"/><path class="st8" d="M23 68.9c5-.5 10 4 10.5 9 .7 6.9-8 14.5-12 15s-10.6-2-11.5-8c-1-6.5 8-15.5 13-16zM330 88.9c-6 .5-9 5.5-9 10.5 0 8.5 15 14.5 19 15s9.1-4.5 10-10.5c1-6.5-14-15.5-20-15z"/><path class="st10" d="M187.5 55.9c0-2 .5-10.5.5-15s-8.5-22-12.5-27.5c-2.7-3.7-8.2-5.3-16.5-5-9.5.4-13.7 5.8-12.5 16 1.7 15.4 13 27.5 19 34.5 1 19.5 5 24.2 13 22.5 7-1.5 10-5 10-13 0-3.9-1-10.5-1-12.5z"/><path class="st11" d="M157 20.9c3.5-1.5 7 .5 9.5-3S163.3 5.1 153 9.4c-8.5 3.5-8.5 11-5.5 14 2 2 6-1 9.5-2.5z"/><ellipse transform="rotate(-34.002 183.487 16.354)" class="st11" cx="183.5" cy="16.4" rx="3.5" ry="4"/><circle class="st12" cx="183" cy="14.4" r="1"/><path class="st11" d="M185.5 41.4c1 4.5.5 11.6.5 14.5s3.5 20-7.5 22.5c-13 3-9.5-16.3-11-21s-24-24-7.5-29 24.5 8.5 25.5 13z"/><path class="st13" d="M176.9 48.2l1.4-.4c2.2-.6 4.5.6 5.1 2.8.1.4.2.7.2 1.1v12c0 2.8-2.2 5-5 5s-5.1-2.2-5.1-5l-.3-10.5c-.2-2.2 1.4-4.3 3.7-5z"/><path class="st12" d="M157.5 37.4c.2 5 .1 7.5-.5 7.5-.9 0-2.5-5.3-2.5-7.6 0-2.4 2.1-5.5 7-6.9 7.5-2 11-.5 12.5 1s.5 9-1 9-1.5-4.5-4.5-6.5c-2.9.6-4.9 1.1-6 1.5s-2.8 1-5 2zm13 35.5c-2.6-.9-5.8-9-4-9 .3 0 1.5 1.5 3.5 4.5 3-.4 4.9-.8 5.5-1 1.7-.7 3.2-1.3 4.5-2 0-5 .3-7.5 1-7.5 2 .5 3.5 8.5 3 10s-2 3.5-6 4.5-6.8.7-7.5.5z"/></svg>