<?xml version="1.0" ?><!DOCTYPE svg  PUBLIC '-//W3C//DTD SVG 1.1//EN'  'http://www.w3.org/Graphics/SVG/1.1/DTD/svg11.dtd'><svg enable-background="new 0 0 100 100" height="100px" id="Layer_1" version="1.1" viewBox="0 0 100 100" width="100px" xml:space="preserve" xmlns="http://www.w3.org/2000/svg" xmlns:xlink="http://www.w3.org/1999/xlink"><g><defs><rect height="100" id="SVGID_1_" width="100"/></defs><path d="M17.33,81.564C10.648,74.294,5.359,64.859,4.672,52.208v-3.69   c0.27-5.343,1.633-10.185,3.34-14.591c2.213-5.711,5.631-11.171,9.67-14.589c-0.004,2.732,0.068,5.342,0.35,7.031   c0.855,5.128,3.713,10.744,7.209,14.238c2.832,2.832,6.629,4.777,10.547,6.854c7.818,4.148,15.254,7.812,23.026,11.952   c5,2.666,10.146,5.959,11.601,11.251c2.059,7.484-2.308,14.425-5.802,18.105c-3.221,3.393-7.444,5.719-12.479,6.504h-5.977   C33.813,93.893,24.039,88.863,17.33,81.564 M47.035,36.389c7.207,3.777,14.648,7.609,21.975,11.425   c3.775,1.968,7.209,4.002,9.842,6.855c4.795,5.195,7.788,11.972,7.207,21.797c1.187-1.149,2.265-2.748,3.163-4.396   c2.612-4.781,4.729-10.875,5.276-17.93c-0.029-0.205,0.035-0.312,0.174-0.352v-7.031C91.576,22.029,74.75,7.18,51.078,5.274h-2.285   c-4.625,0.774-9.131,2.095-11.776,5.1c-1.859,2.107-3.322,5.85-3.518,8.261C32.668,28.975,40.08,32.741,47.035,36.389"/></g></svg>