<?xml version="1.0" encoding="utf-8"?>
<!-- Generator: Adobe Illustrator 19.0.0, SVG Export Plug-In . SVG Version: 6.00 Build 0)  -->
<svg version="1.1" id="Layer_1" xmlns="http://www.w3.org/2000/svg" xmlns:xlink="http://www.w3.org/1999/xlink" x="0px" y="0px"
	 viewBox="0 0 48 48" style="enable-background:new 0 0 48 48;" xml:space="preserve">
<style type="text/css">
	.st0{fill:#FFFFFF;}
	.st1{fill:#0BB263;}
	.st2{fill:#0E7D3F;}
	.st3{fill:#232323;}
</style>
<rect x="0" class="st0" width="48" height="48"/>
<g>
	<path class="st1" d="M33.2,33.2c0,0-3.8-0.7-4.9-1.4c-1.3-0.8-4.1-2.2-2.3-3.6c1.2-0.9,3-0.3,3.9,0.1c0,0,2.1,0.6,3,2.3
		C33.6,32,33.2,33,33.2,33.2z"/>
	<path class="st1" d="M25.8,19c0,0,0.3,0.5,0.6,1.1L25,23.8c0,0-0.8-2.6-3.6-3.3c-2.8-0.7-3.3-0.6-3.3-0.6s1.1-3.3,4.3-2.8
		C25.4,17.4,25.8,19,25.8,19z"/>
	<path class="st2" d="M35,26.5c-2.7-2.3-6.9-3.7-10-2.7c-0.6-2.9-4-4.1-6.8-4c0.7-1.8,2-2.7,3.4-2.7c1.4,0,2.6,0.2,4,1.7
		c-0.2-1.4-2.1-3.2-4.5-3.2c-2.8,0-5.2,1.8-6.3,4.5c-0.1,0.3,0.2,0.8,0.6,1.3c2.6,0,4.6,2.2,5.2,4.1c1.6,5.2,6.2,7.2,11.5,7.3
		c-0.8-0.2-1.8-0.4-2.6-0.7c-2.5-0.9-4.6-2.6-3.3-3.7c0.8-0.7,3.3-0.5,5,0.6c1.6,1,2,2.6,1.7,3.9c-2,6.8,1.1,9.5,6.3,8.8
		C40,34.5,38,29.1,35,26.5z"/>
	<path d="M15.6,21.5c-3.3,0-8.5,2.9-11,4.4c2.1-2.2,8.6-5.4,10.4-5.7L15.6,21.5z"/>
	<circle class="st3" cx="21.3" cy="18.8" r="0.8"/>
	<path class="st1" d="M33.1,25.3c-2.5-1.5-5.7-2.2-8.1-1.4L37.8,9.1C41.1,14.2,37.1,23.5,33.1,25.3"/>
	<path class="st2" d="M25,23.8l6.5-17.7c4.9,3.5,4.2,14.9,1.7,19.2C30.6,23.8,27.5,23,25,23.8z"/>
</g>
</svg>
