<?xml version="1.0" encoding="UTF-8" standalone="no"?>
<!-- Generator: Adobe Illustrator 19.0.0, SVG Export Plug-In . SVG Version: 6.00 Build 0)  -->

<svg
   xmlns:dc="http://purl.org/dc/elements/1.1/"
   xmlns:cc="http://creativecommons.org/ns#"
   xmlns:rdf="http://www.w3.org/1999/02/22-rdf-syntax-ns#"
   xmlns:svg="http://www.w3.org/2000/svg"
   xmlns="http://www.w3.org/2000/svg"
   xmlns:sodipodi="http://sodipodi.sourceforge.net/DTD/sodipodi-0.dtd"
   xmlns:inkscape="http://www.inkscape.org/namespaces/inkscape"
   version="1.1"
   id="Layer_1"
   x="0px"
   y="0px"
   viewBox="0 0 34.777077 35.707336"
   xml:space="preserve"
   sodipodi:docname="sugarsync.svg"
   width="34.777077"
   height="35.707336"
   inkscape:version="0.92.3 (2405546, 2018-03-11)"><metadata
   id="metadata27"><rdf:RDF><cc:Work
       rdf:about=""><dc:format>image/svg+xml</dc:format><dc:type
         rdf:resource="http://purl.org/dc/dcmitype/StillImage" /><dc:title></dc:title></cc:Work></rdf:RDF></metadata><defs
   id="defs25" /><sodipodi:namedview
   pagecolor="#ffffff"
   bordercolor="#666666"
   borderopacity="1"
   objecttolerance="10"
   gridtolerance="10"
   guidetolerance="10"
   inkscape:pageopacity="0"
   inkscape:pageshadow="2"
   inkscape:window-width="640"
   inkscape:window-height="480"
   id="namedview23"
   showgrid="false"
   fit-margin-top="0"
   fit-margin-left="0"
   fit-margin-right="0"
   fit-margin-bottom="0"
   inkscape:zoom="4.9166667"
   inkscape:cx="19.4"
   inkscape:cy="17.807337"
   inkscape:window-x="0"
   inkscape:window-y="0"
   inkscape:window-maximized="0"
   inkscape:current-layer="Layer_1" />
<style
   type="text/css"
   id="style2">
	.st0{fill:#FFFFFF;}
	.st1{fill:#0BB263;}
	.st2{fill:#0E7D3F;}
	.st3{fill:#232323;}
</style>

<g
   id="g20"
   transform="translate(-4.6,-6.1)">
	<path
   class="st1"
   d="m 33.2,33.2 c 0,0 -3.8,-0.7 -4.9,-1.4 C 27,31 24.2,29.6 26,28.2 c 1.2,-0.9 3,-0.3 3.9,0.1 0,0 2.1,0.6 3,2.3 0.7,1.4 0.3,2.4 0.3,2.6 z"
   id="path6"
   inkscape:connector-curvature="0"
   style="fill:#0bb263" />
	<path
   class="st1"
   d="m 25.8,19 c 0,0 0.3,0.5 0.6,1.1 L 25,23.8 c 0,0 -0.8,-2.6 -3.6,-3.3 -2.8,-0.7 -3.3,-0.6 -3.3,-0.6 0,0 1.1,-3.3 4.3,-2.8 3,0.3 3.4,1.9 3.4,1.9 z"
   id="path8"
   inkscape:connector-curvature="0"
   style="fill:#0bb263" />
	<path
   class="st2"
   d="m 35,26.5 c -2.7,-2.3 -6.9,-3.7 -10,-2.7 -0.6,-2.9 -4,-4.1 -6.8,-4 0.7,-1.8 2,-2.7 3.4,-2.7 1.4,0 2.6,0.2 4,1.7 -0.2,-1.4 -2.1,-3.2 -4.5,-3.2 -2.8,0 -5.2,1.8 -6.3,4.5 -0.1,0.3 0.2,0.8 0.6,1.3 2.6,0 4.6,2.2 5.2,4.1 1.6,5.2 6.2,7.2 11.5,7.3 -0.8,-0.2 -1.8,-0.4 -2.6,-0.7 -2.5,-0.9 -4.6,-2.6 -3.3,-3.7 0.8,-0.7 3.3,-0.5 5,0.6 1.6,1 2,2.6 1.7,3.9 -2,6.8 1.1,9.5 6.3,8.8 C 40,34.5 38,29.1 35,26.5 Z"
   id="path10"
   inkscape:connector-curvature="0"
   style="fill:#0e7d3f" />
	<path
   d="m 15.6,21.5 c -3.3,0 -8.5,2.9 -11,4.4 2.1,-2.2 8.6,-5.4 10.4,-5.7 z"
   id="path12"
   inkscape:connector-curvature="0" />
	<circle
   class="st3"
   cx="21.299999"
   cy="18.799999"
   r="0.80000001"
   id="circle14"
   style="fill:#232323" />
	<path
   class="st1"
   d="M 33.1,25.3 C 30.6,23.8 27.4,23.1 25,23.9 L 37.8,9.1 c 3.3,5.1 -0.7,14.4 -4.7,16.2"
   id="path16"
   inkscape:connector-curvature="0"
   style="fill:#0bb263" />
	<path
   class="st2"
   d="M 25,23.8 31.5,6.1 C 36.4,9.6 35.7,21 33.2,25.3 30.6,23.8 27.5,23 25,23.8 Z"
   id="path18"
   inkscape:connector-curvature="0"
   style="fill:#0e7d3f" />
</g>
</svg>