<?xml version="1.0" ?><svg enable-background="new 0 0 24 24" id="Layer_1" version="1.1" viewBox="0 0 24 24" xml:space="preserve" xmlns="http://www.w3.org/2000/svg" xmlns:xlink="http://www.w3.org/1999/xlink"><g><path d="M21,23H3c-1.1045696,0-2-0.8954296-2-2V3c0-1.1045696,0.8954304-2,2-2h18c1.1045704,0,2,0.8954304,2,2v18   C23,22.1045704,22.1045704,23,21,23z" fill="#21B3E8"/><path d="M21,1H3C1.8954468,1,1,1.8953857,1,3v0.25c0-1.1046143,0.8954468-2,2-2h18   c1.1045532,0,2,0.8953857,2,2V3C23,1.8953857,22.1045532,1,21,1z" fill="#FFFFFF" opacity="0.2"/><path d="M21,22.75H3c-1.1045532,0-2-0.8954468-2-2V21c0,1.1045532,0.8954468,2,2,2h18   c1.1045532,0,2-0.8954468,2-2v-0.25C23,21.8545532,22.1045532,22.75,21,22.75z" fill="#010101" opacity="0.1"/><path d="M12,3c-4.9705811,0-9,4.0294189-9,9c0,4.97052,4.0294189,9,9,9s9-4.02948,9-9   C21,7.0294189,16.9705811,3,12,3z M14.9992676,14.9992676L15.5,13h-7l0.4992065,2.0007935L5,12l4.0007324-2.9992676L8.5,11h7   l-0.5007935-1.9992065L19,12L14.9992676,14.9992676z" fill="#FFFFFF"/><path d="M12,3.25c3.9824829,0,7.3519459,2.5230303,8.5974293,6.0802813   C19.4699879,5.6468096,16.0527344,3,12,3S4.5354085,5.6294732,3.4079671,9.3129454C4.6534505,5.7556939,8.0175171,3.25,12,3.25z" fill="#FFFFFF" opacity="0.2"/><path d="M12,20.75c-3.6246815,0-6.7415476-2.0900383-8.2113953-5.1476154   c-0.145092-0.3018208-0.2741356-0.6130695-0.3860345-0.9326658c0.140655,0.4595346,0.3169487,0.9029341,0.5256686,1.3270731   C5.3925471,18.9724045,8.4528675,21,12,21c3.6271524,0,6.7409592-2.1062222,8.1631813-5.1892223   c0.0767555-0.1663847,0.1485844-0.3356133,0.2152996-0.5075092c0.078331-0.2018232,0.1496143-0.4073238,0.2135525-0.6162138   C19.34655,18.2443066,15.9824829,20.75,12,20.75z" fill="#010101" opacity="0.1"/><polygon fill="#010101" id="XMLID_1560_" opacity="0.1" points="19,12 14.9992075,9.0007925 15.5,11 8.5,11 9.0007257,9.0007257    5,12 8.9991913,15.0008087 8.5,13 15.5,13 14.9992743,14.9992743  "/><linearGradient gradientUnits="userSpaceOnUse" id="SVGID_1_" x1="11.9242706" x2="22.3384781" y1="12.0757294" y2="22.4899368"><stop offset="0" style="stop-color:#010101;stop-opacity:0.1"/><stop offset="1" style="stop-color:#010101;stop-opacity:0"/></linearGradient><path d="M19.5942993,7.1558838l-0.0115967,0.0092773C20.475647,8.5626221,21,10.2185669,21,12   c0,4.97052-4.0294189,9-9,9c-2.4849243,0-4.7345581-1.0070801-6.3631592-2.6353149l-0.0075073,0.0059814L10.258667,23H21   c1.1045532,0,2-0.8954468,2-2V10.5615845L19.5942993,7.1558838z" fill="url(#SVGID_1_)"/><linearGradient gradientUnits="userSpaceOnUse" id="SVGID_2_" x1="-0.6527924" x2="24.652792" y1="6.099906" y2="17.9000931"><stop offset="0" style="stop-color:#FFFFFF;stop-opacity:0.2"/><stop offset="1" style="stop-color:#FFFFFF;stop-opacity:0"/></linearGradient><path d="M21,23H3c-1.1045696,0-2-0.8954296-2-2V3c0-1.1045696,0.8954304-2,2-2h18   c1.1045704,0,2,0.8954304,2,2v18C23,22.1045704,22.1045704,23,21,23z" fill="url(#SVGID_2_)"/></g><g/><g/><g/><g/><g/><g/><g/><g/><g/><g/><g/><g/><g/><g/><g/></svg>