<?xml version="1.0" encoding="UTF-8" standalone="no"?>
<svg
   xmlns:dc="http://purl.org/dc/elements/1.1/"
   xmlns:cc="http://creativecommons.org/ns#"
   xmlns:rdf="http://www.w3.org/1999/02/22-rdf-syntax-ns#"
   xmlns:svg="http://www.w3.org/2000/svg"
   xmlns="http://www.w3.org/2000/svg"
   xmlns:sodipodi="http://sodipodi.sourceforge.net/DTD/sodipodi-0.dtd"
   xmlns:inkscape="http://www.inkscape.org/namespaces/inkscape"
   enable-background="new 0 0 24 24"
   id="Layer_1"
   version="1.1"
   viewBox="0 0 22 22"
   xml:space="preserve"
   sodipodi:docname="teamviewer.svg"
   width="22"
   height="22"
   inkscape:version="0.92.3 (2405546, 2018-03-11)"><metadata
     id="metadata66"><rdf:RDF><cc:Work
         rdf:about=""><dc:format>image/svg+xml</dc:format><dc:type
           rdf:resource="http://purl.org/dc/dcmitype/StillImage" /><dc:title></dc:title></cc:Work></rdf:RDF></metadata><defs
     id="defs64" /><sodipodi:namedview
     pagecolor="#ffffff"
     bordercolor="#666666"
     borderopacity="1"
     objecttolerance="10"
     gridtolerance="10"
     guidetolerance="10"
     inkscape:pageopacity="0"
     inkscape:pageshadow="2"
     inkscape:window-width="640"
     inkscape:window-height="480"
     id="namedview62"
     showgrid="false"
     fit-margin-top="0"
     fit-margin-left="0"
     fit-margin-right="0"
     fit-margin-bottom="0"
     inkscape:zoom="9.8333333"
     inkscape:cx="11"
     inkscape:cy="11"
     inkscape:window-x="0"
     inkscape:window-y="0"
     inkscape:window-maximized="0"
     inkscape:current-layer="Layer_1" /><g
     id="g29"
     transform="translate(-1,-1)"><path
       d="M 21,23 H 3 C 1.8954304,23 1,22.10457 1,21 V 3 C 1,1.8954304 1.8954304,1 3,1 h 18 c 1.10457,0 2,0.8954304 2,2 v 18 c 0,1.10457 -0.89543,2 -2,2 z"
       id="path2"
       inkscape:connector-curvature="0"
       style="fill:#21b3e8" /><path
       d="M 21,1 H 3 C 1.8954468,1 1,1.8953857 1,3 v 0.25 c 0,-1.1046143 0.8954468,-2 2,-2 h 18 c 1.104553,0 2,0.8953857 2,2 V 3 C 23,1.8953857 22.104553,1 21,1 Z"
       id="path4"
       inkscape:connector-curvature="0"
       style="opacity:0.2;fill:#ffffff" /><path
       d="M 21,22.75 H 3 c -1.1045532,0 -2,-0.895447 -2,-2 V 21 c 0,1.104553 0.8954468,2 2,2 h 18 c 1.104553,0 2,-0.895447 2,-2 v -0.25 c 0,1.104553 -0.895447,2 -2,2 z"
       id="path6"
       inkscape:connector-curvature="0"
       style="opacity:0.1;fill:#010101" /><path
       d="m 12,3 c -4.9705811,0 -9,4.0294189 -9,9 0,4.97052 4.0294189,9 9,9 4.970581,0 9,-4.02948 9,-9 C 21,7.0294189 16.970581,3 12,3 Z M 14.999268,14.999268 15.5,13 h -7 L 8.9992065,15.000794 5,12 9.0007324,9.0007324 8.5,11 h 7 L 14.999207,9.0007935 19,12 Z"
       id="path8"
       inkscape:connector-curvature="0"
       style="fill:#ffffff" /><path
       d="m 12,3.25 c 3.982483,0 7.351946,2.5230303 8.597429,6.0802813 C 19.469988,5.6468096 16.052734,3 12,3 7.9472656,3 4.5354085,5.6294732 3.4079671,9.3129454 4.6534505,5.7556939 8.0175171,3.25 12,3.25 Z"
       id="path10"
       inkscape:connector-curvature="0"
       style="opacity:0.2;fill:#ffffff" /><path
       d="m 12,20.75 c -3.6246815,0 -6.7415476,-2.090038 -8.2113953,-5.147615 -0.145092,-0.301821 -0.2741356,-0.61307 -0.3860345,-0.932666 0.140655,0.459534 0.3169487,0.902934 0.5256686,1.327073 C 5.3925471,18.972404 8.4528675,21 12,21 c 3.627152,0 6.740959,-2.106222 8.163181,-5.189222 0.07676,-0.166385 0.148585,-0.335614 0.2153,-0.507509 0.07833,-0.201824 0.149614,-0.407324 0.213552,-0.616214 C 19.34655,18.244307 15.982483,20.75 12,20.75 Z"
       id="path12"
       inkscape:connector-curvature="0"
       style="opacity:0.1;fill:#010101" /><polygon
       id="XMLID_1560_"
       points="15.5,11 8.5,11 9.0007257,9.0007257 5,12 8.9991913,15.000809 8.5,13 15.5,13 14.999274,14.999274 19,12 14.999208,9.0007925 "
       style="opacity:0.1;fill:#010101" /><linearGradient
       gradientUnits="userSpaceOnUse"
       id="SVGID_1_"
       x1="11.924271"
       x2="22.338478"
       y1="12.075729"
       y2="22.489937"><stop
         offset="0"
         style="stop-color:#010101;stop-opacity:0.1"
         id="stop15" /><stop
         offset="1"
         style="stop-color:#010101;stop-opacity:0"
         id="stop17" /></linearGradient><path
       d="m 19.594299,7.1558838 -0.0116,0.00928 C 20.475647,8.5626221 21,10.218567 21,12 c 0,4.97052 -4.029419,9 -9,9 -2.4849243,0 -4.7345581,-1.00708 -6.3631592,-2.635315 l -0.00751,0.006 L 10.258667,23 H 21 c 1.104553,0 2,-0.895447 2,-2 V 10.561585 Z"
       id="path20"
       inkscape:connector-curvature="0"
       style="fill:url(#SVGID_1_)" /><linearGradient
       gradientUnits="userSpaceOnUse"
       id="SVGID_2_"
       x1="-0.65279239"
       x2="24.652792"
       y1="6.099906"
       y2="17.900093"><stop
         offset="0"
         style="stop-color:#FFFFFF;stop-opacity:0.2"
         id="stop22" /><stop
         offset="1"
         style="stop-color:#FFFFFF;stop-opacity:0"
         id="stop24" /></linearGradient><path
       d="M 21,23 H 3 C 1.8954304,23 1,22.10457 1,21 V 3 C 1,1.8954304 1.8954304,1 3,1 h 18 c 1.10457,0 2,0.8954304 2,2 v 18 c 0,1.10457 -0.89543,2 -2,2 z"
       id="path27"
       inkscape:connector-curvature="0"
       style="fill:url(#SVGID_2_)" /></g><g
     id="g31"
     transform="translate(-1,-1)" /><g
     id="g33"
     transform="translate(-1,-1)" /><g
     id="g35"
     transform="translate(-1,-1)" /><g
     id="g37"
     transform="translate(-1,-1)" /><g
     id="g39"
     transform="translate(-1,-1)" /><g
     id="g41"
     transform="translate(-1,-1)" /><g
     id="g43"
     transform="translate(-1,-1)" /><g
     id="g45"
     transform="translate(-1,-1)" /><g
     id="g47"
     transform="translate(-1,-1)" /><g
     id="g49"
     transform="translate(-1,-1)" /><g
     id="g51"
     transform="translate(-1,-1)" /><g
     id="g53"
     transform="translate(-1,-1)" /><g
     id="g55"
     transform="translate(-1,-1)" /><g
     id="g57"
     transform="translate(-1,-1)" /><g
     id="g59"
     transform="translate(-1,-1)" /></svg>