<svg xmlns="http://www.w3.org/2000/svg" xmlns:xlink="http://www.w3.org/1999/xlink" viewBox="0 0 48 48"><defs><linearGradient xlink:href="#0" id="2" y1="557.18" x2="0" y2="528.61" gradientUnits="userSpaceOnUse"/><linearGradient y2="518.14" x2="0" y1="545.14" gradientUnits="userSpaceOnUse" id="1" xlink:href="#0"/><linearGradient id="0"><stop stop-color="#197ff1"/><stop offset="1" stop-color="#21c6fb"/></linearGradient><linearGradient gradientUnits="userSpaceOnUse" y2="517.8" x2="0" y1="545.8"><stop stop-color="#3889e9"/><stop offset="1" stop-color="#5ea5fb"/></linearGradient></defs><g transform="matrix(.99999 0 0 .99999-38.37 25.882)" enable-background="new"><g transform="matrix(1.71429 0 0 1.71429-624.32-913.53)"><circle r="14" cy="531.8" cx="400.57" fill="url(#1)"/><circle cx="400.57" cy="531.8" r="14" fill="#5ea5fb" fill-opacity="0"/></g><path d="m52.28-16.844c-.622.062-1.13.705-.725 1.467 1.782 3.602 2.852 6.163 4.699 10.121.333-.757.543-1.268 1.041-2.396-1.908-3.766-2.182-5.37-3.945-8.578-.282-.48-.697-.651-1.07-.613m20.439.123c-.389-.017-.802.21-1.057.803-2.33 5.221-6.632 15.81-8.545 20.06-1.089 2.214.859 3.083 1.596 1.861 2.467-5.114 6.196-14.906 8.896-21.15.336-.829-.243-1.538-.891-1.566m-11.801 6.758c-.389-.017-.802.21-1.057.803-2.33 5.221-6.632 15.808-8.545 20.05-1.089 2.214.86 2.878 1.699 1.451 2.467-5.114 6.092-14.494 8.793-20.742.336-.829-.243-1.538-.891-1.566m3.91.979c-.389-.017-.802.212-1.057.805-2.33 5.221-3.134 7.786-5.05 12.03-1.089 2.214.756 2.98 1.492 1.348 2.467-5.114 2.803-6.371 5.504-12.619.336-.829-.245-1.538-.893-1.566m20.307.539c-3.994.881-7.14 2.516-10.699 4.764-1.013-.795-1.649-1.476-2.459-2.301-.263.485-.9 1.851-1.131 2.211.847.826 1.199 1.311 1.873 1.799-.812.581-.823.744-2.762 2.455.405.765.628 1.518 1.033 2.264.938-1.01 1.647-1.819 3.67-3.16 2.884 1.516 5.297 3.091 10.488 4.467.295-.958.467-1.549.57-2.566-2.204-.736-6.373-1.845-8.777-3.527 1.778-1.252 4.215-2.466 8.852-3.418-.1-.742-.523-2.464-.658-2.986m-45.691.635c-.25.914-.38 1.461-.482 2.479 2.204.736 6.465 1.89 8.869 3.572-1.778 1.252-4.217 2.466-8.854 3.418.1.742.525 2.464.66 2.986 3.994-.881 7.138-2.518 10.697-4.766 1.013.795 1.649 1.478 2.459 2.303.263-.485.9-1.851 1.131-2.211-.847-.826-1.199-1.311-1.873-1.799.812-.581.823-.746 2.762-2.457-.405-.765-.626-1.516-1.031-2.262-.938 1.01-1.649 1.817-3.672 3.158-2.884-1.516-5.475-3.046-10.666-4.422m28.986 8.771c-.333.757-.543 1.268-1.041 2.396 1.908 3.766 2.182 5.37 3.945 8.578.752 1.279 2.443.367 1.795-.852-1.782-3.602-2.852-6.165-4.699-10.123" fill="#def4fe" fill-rule="evenodd"/><g transform="matrix(1.71429 0 0 1.71429-634.32-933.53)"><circle r="13.714" cy="543.46" cx="406.4" fill="none" stroke="url(#2)" stroke-width=".571"/><circle cx="400.57" cy="531.8" r="14" fill="#5ea5fb" fill-opacity="0"/></g></g></svg>